<svg viewBox="0 0 1000 1000" fill="none" xmlns="http://www.w3.org/2000/svg">
<path d="M113 469.53L138.827 486.998H113V551.994H138.827V486.998V448H113V469.53Z" fill="black"/>
<path d="M287.332 473.998C290.964 473.998 293.788 476.842 293.788 480.498V495.528L319.615 512.996V473.998C319.615 459.781 307.913 448 293.788 448H139.23L177.971 473.998H287.735H287.332Z" fill="black"/>
<path d="M209.851 526.002C206.219 526.002 203.394 523.158 203.394 519.502V504.472L177.567 487.004V526.002C177.567 540.219 189.27 552 203.394 552H357.952L319.212 526.002H209.447H209.851Z" fill="black"/>
<path d="M396.692 526H370.865V551.998H396.692V526Z" fill="black"/>
<path d="M577.481 473.998V486.998H603.308V480.498C603.308 476.842 606.133 473.998 609.765 473.998H719.529V448H603.308C589.184 448 577.481 459.781 577.481 473.998Z" fill="black"/>
<path d="M577.481 519.502C577.481 537.376 592.009 552 609.765 552H719.529V526.002H609.765C606.133 526.002 603.308 523.158 603.308 519.502C603.308 515.846 606.133 513.002 609.765 513.002H719.529V487.004H609.765C592.009 487.004 577.481 501.628 577.481 519.502Z" fill="black"/>
<path d="M538.741 448H435.433C421.309 448 409.606 459.781 409.606 473.998V551.994H435.433V480.498C435.433 476.842 438.258 473.998 441.89 473.998H532.284C535.916 473.998 538.741 476.842 538.741 480.498V551.994H564.567V473.998C564.567 459.781 552.865 448 538.741 448Z" fill="black"/>
<path d="M822.433 448V473.998C822.433 459.781 810.73 448 796.606 448H732.039V473.998H790.149C793.781 473.998 796.606 476.842 796.606 480.498V551.994H822.433V473.998H887V448H822.433Z" fill="black"/>
</svg>
