<svg xmlns="http://www.w3.org/2000/svg" xmlns:xlink="http://www.w3.org/1999/xlink" viewBox="0 0 212.92 57.35"><defs><style>.cls-1{fill:#3e374f;}.cls-2{fill:url(#未命名的渐变_545);}.cls-3{fill:url(#未命名的渐变_545-2);}.cls-4{fill:url(#未命名的渐变_545-3);}.cls-5{fill:url(#未命名的渐变_545-4);}.cls-6{fill:url(#未命名的渐变_545-5);}.cls-7{fill:url(#未命名的渐变_545-6);}.cls-8{fill:url(#未命名的渐变_545-7);}.cls-9{fill:#fff;}.cls-10{fill:url(#未命名的渐变_544);}.cls-11{fill:#8d8997;}</style><linearGradient id="未命名的渐变_545" x1="62.04" y1="20.5" x2="16.94" y2="-3.76" gradientUnits="userSpaceOnUse"><stop offset="0" stop-color="#221fff"/><stop offset="1" stop-color="#f0f5fa"/></linearGradient><linearGradient id="未命名的渐变_545-2" x1="37.71" y1="49.01" x2="17.03" y2="16.38" xlink:href="#未命名的渐变_545"/><linearGradient id="未命名的渐变_545-3" x1="31.98" y1="20.38" x2="-6.63" y2="22.6" xlink:href="#未命名的渐变_545"/><linearGradient id="未命名的渐变_545-4" x1="15.99" y1="56.07" x2="1.46" y2="20.7" xlink:href="#未命名的渐变_545"/><linearGradient id="未命名的渐变_545-5" x1="39.33" y1="41.05" x2="64.1" y2="74.37" xlink:href="#未命名的渐变_545"/><linearGradient id="未命名的渐变_545-6" x1="38.84" y1="6.51" x2="61.23" y2="56.89" xlink:href="#未命名的渐变_545"/><linearGradient id="未命名的渐变_545-7" x1="41.74" y1="69.92" x2="23.8" y2="30.96" xlink:href="#未命名的渐变_545"/><linearGradient id="未命名的渐变_544" x1="12.71" y1="30.67" x2="24.32" y2="30.67" gradientUnits="userSpaceOnUse"><stop offset="0" stop-color="#221fff"/><stop offset="0.18" stop-color="#2320ff" stop-opacity="0.99"/><stop offset="0.31" stop-color="#2522ff" stop-opacity="0.95"/><stop offset="0.43" stop-color="#2825ff" stop-opacity="0.89"/><stop offset="0.54" stop-color="#2d2aff" stop-opacity="0.8"/><stop offset="0.64" stop-color="#3431ff" stop-opacity="0.69"/><stop offset="0.74" stop-color="#3b38ff" stop-opacity="0.55"/><stop offset="0.83" stop-color="#4542ff" stop-opacity="0.38"/><stop offset="0.92" stop-color="#4f4cff" stop-opacity="0.19"/><stop offset="1" stop-color="#5a57ff" stop-opacity="0"/></linearGradient></defs><title>logo-浅色底-中英-by</title><g id="图层_2" data-name="图层 2"><g id="图层_1-2" data-name="图层 1"><path class="cls-1" d="M84.68,2.16C83.75,3.84,82.63,5.78,81.33,8L78.85,30.67H75.49l2-16.6L75.7,16.68H71.91A139,139,0,0,0,81,2.16Zm7.72,0-.84,7.28h10l-.37,3.05H95.89L94.14,26.81a1,1,0,0,0,0,.27c0,.16,0,.27.13.32a.84.84,0,0,0,.44.08h1.64a11.76,11.76,0,0,0,2.42-.28,10.82,10.82,0,0,0,2.41-.79l-.47,3.42a8.89,8.89,0,0,1-2.09.56,17,17,0,0,1-2.47.18h-3a2.13,2.13,0,0,1-1.6-.64,2.43,2.43,0,0,1-.62-1.77,3.6,3.6,0,0,1,0-.64l1.88-15.06H91.06a49,49,0,0,1-3.12,10.36,36.65,36.65,0,0,1-4.63,8.09L80.06,30a35.75,35.75,0,0,0,5-8.28,41.9,41.9,0,0,0,2.78-9.26H82.71L83,9.41h5.23l.88-7.28ZM97.46,3l2.29,5.06H96.59L94.45,3Z"/><path class="cls-1" d="M131.14,28.12q-8.89,1.08-16.67,1.31a2.91,2.91,0,0,1-1.49-.29,2.14,2.14,0,0,1-.93-.85,1.64,1.64,0,0,1-.2-.77,2.89,2.89,0,0,1,.81-1.88A98.18,98.18,0,0,0,119.74,16H111l.4-3.22H138L137.61,16H123.73a112.49,112.49,0,0,1-7.21,10.16c1.16,0,3.29-.15,6.4-.37,2.15-.16,4.47-.4,7-.74l-2.48-6.2h3.42l4.86,11.27H132ZM114.64,3.64H135.8l-.37,3.12H114.27Z"/><path class="cls-1" d="M150.23,6.55a1.45,1.45,0,0,1-.84-.21.7.7,0,0,1-.3-.59,1.73,1.73,0,0,1,.23-.74l1.41-2.78H154l-.77,1.71H162l-.4,2.61h-4a19.74,19.74,0,0,1-.57,2.32h5l-.34,2.65H156.2A42.42,42.42,0,0,1,161.7,15l-2.15,1.88c-1.36-1-2.24-1.67-2.62-2-.78-.56-1.51-1-2.18-1.48a18.22,18.22,0,0,1-5.43,4.73l-2.55-1.88A23.85,23.85,0,0,0,150.23,14a11.75,11.75,0,0,0,2.34-2.51h-4.89L148,8.87H154a12.68,12.68,0,0,0,.64-2.32Zm20.19,24.22H149.35l1.45-11.13a2.48,2.48,0,0,1,.88-1.65,2.79,2.79,0,0,1,1.83-.64h15.77a2.52,2.52,0,0,1,1.74.58,2,2,0,0,1,.64,1.57,3,3,0,0,1,0,.5ZM152.94,28H167.5l.27-2.54H153.24Zm15.43-7.78H153.92l-.34,2.55h14.49ZM173.81,16H162.17l1.24-10a2.67,2.67,0,0,1,.8-1.68,2.53,2.53,0,0,1,1.75-.6h6.77a2.27,2.27,0,0,1,1.78.75,2.09,2.09,0,0,1,.5,1.8Zm-8.26-2.69h5.54l.74-6.91h-5.44Z"/><path class="cls-1" d="M208.42,21.78H204.8l-.2,1.78h7.07l-.26,2.52h-7.12l-.6,5.06h-3.08l.6-5.06h-7.45A9.31,9.31,0,0,1,191.62,29a16.55,16.55,0,0,1-3.73,2.53l-2.55-1.74a20.32,20.32,0,0,0,3.12-1.86,9,9,0,0,0,1.88-1.86h-6.71l.31-2.52h7.37l.1-.37a1.82,1.82,0,0,1,0-.4l.07-1h-4.47l1.25-10.36a2.42,2.42,0,0,1,.9-1.61A2.7,2.7,0,0,1,191,9.17h16.23a2.46,2.46,0,0,1,1.81.74,2.09,2.09,0,0,1,.54.84,2,2,0,0,1,.1,1ZM199.57,3.67,199.33,6h-4.16l1,2.55h-3L192.29,6h-2.12c-.51.79-1.3,1.92-2.38,3.39H184.3q1.95-2.74,2.69-3.86c.71-1,1.45-2.25,2.21-3.62h3.39l-1,1.78ZM190.34,19.5h15.3l.16-1.37H190.51Zm15.87-4.73h-15.3l-.17,1.34H206Zm.43-3.35H191.31l-.16,1.34h15.33Zm-12,10.36-.06,1.11-.1.67h7l.2-1.78ZM212.92,3.67,212.68,6h-4.39l1.07,2.69h-3L205.4,6h-2.18c-.36.61-.89,1.47-1.61,2.59h-3.35a65.1,65.1,0,0,0,4-6.68h3.22a15.33,15.33,0,0,1-.94,1.78Z"/><polygon class="cls-2" points="49.67 7.17 37.25 14.33 37.21 14.31 24.83 7.17 37.21 0.02 37.25 0 49.67 7.17"/><path class="cls-3" d="M41.9,31.36l-.07,0-1.81-1a5.56,5.56,0,0,1-2.78-4.79l0-11.18L24.83,7.17l-.07,0V18.34A5.54,5.54,0,0,1,22,23.14l-9.56,5.52V43l7.71-4.46,1.93-1.11a5.56,5.56,0,0,1,5.55,0L37.21,43l0,0,12.41-7.16h0Z"/><path class="cls-4" d="M24.76,16.12v2.22A5.54,5.54,0,0,1,22,23.14l-9.56,5.52L0,21.51v0l12.42-7.15,7.72,4.45A3.08,3.08,0,0,0,24.76,16.12Z"/><polygon class="cls-5" points="12.42 28.66 12.42 43.01 0 35.84 0 21.51 12.42 28.66"/><polygon class="cls-6" points="49.67 35.84 49.67 50.18 49.67 50.18 37.25 57.34 37.21 57.33 37.21 43.04 37.25 43.01 49.67 35.84 49.67 35.84"/><path class="cls-7" d="M49.67,7.17V21.51h0L41.9,26c-2,1.18-1.88,4.28-1.88,4.28a5.56,5.56,0,0,1-2.78-4.79l0-11.14,0,0Z"/><path class="cls-8" d="M37.21,43V57.33L24.83,50.18l-.07,0V41.21a3.08,3.08,0,0,0-4.62-2.66L22,37.48a5.55,5.55,0,0,1,5.52,0Z"/><path class="cls-9" d="M25.51,25.5v6.32A1.59,1.59,0,0,0,27.9,33.2L33.39,30a1.6,1.6,0,0,0,0-2.76L27.9,24.11A1.6,1.6,0,0,0,25.51,25.5Z"/><path class="cls-10" d="M24.76,18.34A5.54,5.54,0,0,1,22,23.14l-9.56,5.52V43l7.71-4.46,1.93-1.11a5.62,5.62,0,0,1,2.7-.74Z"/><path class="cls-11" d="M74.8,53.5l1.61-13.16h2L77.93,44h2.34a3.83,3.83,0,0,1,2.66.82,3.16,3.16,0,0,1,.89,2.43,8.4,8.4,0,0,1,0,.85l-.16,1.3q-.49,4.11-4.54,4.11Zm4.49-1.82c1.37,0,2.14-.75,2.33-2.24l.17-1.4q0-.34,0-.48a1.55,1.55,0,0,0-1.77-1.74H77.71L77,51.68Z"/><path class="cls-11" d="M95.16,44l-7,13.1H86.09l2.12-4-3-9.12h2.13l2.07,6.77h0L93.07,44Z"/><path class="cls-11" d="M104.9,51.69a3.27,3.27,0,0,0,2.36-.78,4.3,4.3,0,0,0,1-2.49l.94-7.74h2l-.92,7.63a6.44,6.44,0,0,1-1.69,4,5.62,5.62,0,0,1-3.93,1.26H104a4.88,4.88,0,0,1-3.33-1,3.85,3.85,0,0,1-1.06-3c0-.34,0-.76.08-1.28l.94-7.63h2l-.94,7.74c0,.45-.07.76-.07.92a2.31,2.31,0,0,0,.6,1.79,2.93,2.93,0,0,0,2,.56Z"/><path class="cls-11" d="M119.09,40.68c.48,0,1.16,0,2,0h1.06l-.26,1.9-1,0-2.13,0h-.75a3,3,0,0,0-2.31.79,4.44,4.44,0,0,0-1,2.54l-.31,2.48c0,.45-.07.77-.07,1a2.42,2.42,0,0,0,.59,1.81,2.73,2.73,0,0,0,1.94.56h.82c.6,0,1.58,0,2.93-.11l.43,0L121,53.44c-1.11.09-2.24.13-3.39.13h-.82a4.89,4.89,0,0,1-3.32-1,3.89,3.89,0,0,1-1-3,12.07,12.07,0,0,1,.08-1.33l.26-2.27a6.51,6.51,0,0,1,1.7-4,5.62,5.62,0,0,1,3.93-1.27Z"/><path class="cls-11" d="M122.82,53.5l1.6-13.16h2l-1.6,13.16Z"/><path class="cls-11" d="M127.32,48q.5-4.11,4.53-4.11h.82q3.53,0,3.53,3.24c0,.26,0,.55,0,.85L136,49.46q-.49,4.11-4.52,4.11h-.82q-3.54,0-3.54-3.24c0-.26,0-.55.05-.85Zm4.36,3.71A2.19,2.19,0,0,0,134,49.51l.19-1.54q0-.33,0-.48a1.55,1.55,0,0,0-1.77-1.74h-.82c-1.37,0-2.14.75-2.33,2.24l-.18,1.54a3.76,3.76,0,0,0,0,.47,1.56,1.56,0,0,0,1.78,1.75Z"/><path class="cls-11" d="M143.8,51.63l.92-7.64h2l-1.17,9.51h-4.28q-3.54,0-3.54-3.24a6.52,6.52,0,0,1,.06-.85l.66-5.42h2l-.66,5.47a4.51,4.51,0,0,0,0,.61,1.52,1.52,0,0,0,.42,1.23,2.14,2.14,0,0,0,1.36.34Z"/><path class="cls-11" d="M148.05,48.11c.33-2.74,1.8-4.12,4.41-4.12h2.23l.45-3.65h2L155.5,53.5h-4.12c-2.36,0-3.53-1.08-3.53-3.24a6.43,6.43,0,0,1,.05-.85Zm5.7,3.57.72-5.89h-2.24c-1.28,0-2,.75-2.2,2.27l-.17,1.4c0,.23,0,.39,0,.49a1.55,1.55,0,0,0,1.77,1.73Z"/></g></g></svg>